<mxfile host="Electron" agent="Mozilla/5.0 (Windows NT 10.0; Win64; x64) AppleWebKit/537.36 (KHTML, like Gecko) draw.io/28.1.2 Chrome/138.0.7204.243 Electron/37.4.0 Safari/537.36" version="28.1.2">
  <diagram name="Page-1" id="Mk0SVqg6Y9VWB_AF7rnx">
    <mxGraphModel dx="1483" dy="1056" grid="1" gridSize="10" guides="1" tooltips="1" connect="1" arrows="1" fold="1" page="1" pageScale="1" pageWidth="827" pageHeight="1169" math="0" shadow="0">
      <root>
        <mxCell id="0" />
        <mxCell id="1" parent="0" />
        <mxCell id="3htCd6F4rnlMjq0S3QB5-1" value="" style="ellipse;html=1;shape=startState;fillColor=#000000;strokeColor=#ff0000;" parent="1" vertex="1">
          <mxGeometry x="285" y="30" width="30" height="30" as="geometry" />
        </mxCell>
        <mxCell id="3htCd6F4rnlMjq0S3QB5-2" value="" style="edgeStyle=orthogonalEdgeStyle;html=1;verticalAlign=bottom;endArrow=open;endSize=8;strokeColor=#ff0000;rounded=0;" parent="1" source="3htCd6F4rnlMjq0S3QB5-1" edge="1">
          <mxGeometry relative="1" as="geometry">
            <mxPoint x="300" y="120" as="targetPoint" />
          </mxGeometry>
        </mxCell>
        <mxCell id="3htCd6F4rnlMjq0S3QB5-3" value="Prijava na sistem" style="rounded=1;whiteSpace=wrap;html=1;arcSize=40;fontColor=#000000;fillColor=#ffffc0;strokeColor=#ff0000;" parent="1" vertex="1">
          <mxGeometry x="240" y="120" width="120" height="40" as="geometry" />
        </mxCell>
        <mxCell id="3htCd6F4rnlMjq0S3QB5-4" value="" style="edgeStyle=orthogonalEdgeStyle;html=1;verticalAlign=bottom;endArrow=open;endSize=8;strokeColor=#ff0000;rounded=0;" parent="1" source="3htCd6F4rnlMjq0S3QB5-3" edge="1">
          <mxGeometry relative="1" as="geometry">
            <mxPoint x="300" y="220" as="targetPoint" />
          </mxGeometry>
        </mxCell>
        <mxCell id="3htCd6F4rnlMjq0S3QB5-5" value="Uspešno?" style="rhombus;whiteSpace=wrap;html=1;fontColor=#000000;fillColor=#ffffc0;strokeColor=#ff0000;" parent="1" vertex="1">
          <mxGeometry x="260" y="220" width="80" height="40" as="geometry" />
        </mxCell>
        <mxCell id="3htCd6F4rnlMjq0S3QB5-6" value="NE" style="edgeStyle=orthogonalEdgeStyle;html=1;align=left;verticalAlign=bottom;endArrow=open;endSize=8;strokeColor=#ff0000;rounded=0;" parent="1" source="3htCd6F4rnlMjq0S3QB5-5" edge="1">
          <mxGeometry x="-1" relative="1" as="geometry">
            <mxPoint x="440" y="240" as="targetPoint" />
          </mxGeometry>
        </mxCell>
        <mxCell id="3htCd6F4rnlMjq0S3QB5-7" value="DA" style="edgeStyle=orthogonalEdgeStyle;html=1;align=left;verticalAlign=top;endArrow=open;endSize=8;strokeColor=#ff0000;rounded=0;" parent="1" source="3htCd6F4rnlMjq0S3QB5-5" edge="1">
          <mxGeometry x="-1" relative="1" as="geometry">
            <mxPoint x="300" y="320" as="targetPoint" />
          </mxGeometry>
        </mxCell>
        <mxCell id="3htCd6F4rnlMjq0S3QB5-8" value="Prikaži grešku" style="rounded=1;whiteSpace=wrap;html=1;arcSize=40;fontColor=#000000;fillColor=#ffffc0;strokeColor=#ff0000;" parent="1" vertex="1">
          <mxGeometry x="440" y="220" width="120" height="40" as="geometry" />
        </mxCell>
        <mxCell id="3htCd6F4rnlMjq0S3QB5-12" value="Pregled dostupnih paketa" style="rounded=1;whiteSpace=wrap;html=1;arcSize=40;fontColor=#000000;fillColor=#ffffc0;strokeColor=#ff0000;" parent="1" vertex="1">
          <mxGeometry x="240" y="320" width="120" height="70" as="geometry" />
        </mxCell>
        <mxCell id="3htCd6F4rnlMjq0S3QB5-13" value="" style="edgeStyle=orthogonalEdgeStyle;html=1;verticalAlign=bottom;endArrow=open;endSize=8;strokeColor=#ff0000;rounded=0;" parent="1" source="3htCd6F4rnlMjq0S3QB5-12" edge="1">
          <mxGeometry relative="1" as="geometry">
            <mxPoint x="300" y="420" as="targetPoint" />
          </mxGeometry>
        </mxCell>
        <mxCell id="3htCd6F4rnlMjq0S3QB5-14" value="Odabir željenog paketa" style="rounded=1;whiteSpace=wrap;html=1;arcSize=40;fontColor=#000000;fillColor=#ffffc0;strokeColor=#ff0000;" parent="1" vertex="1">
          <mxGeometry x="240" y="420" width="120" height="40" as="geometry" />
        </mxCell>
        <mxCell id="3htCd6F4rnlMjq0S3QB5-15" value="" style="edgeStyle=orthogonalEdgeStyle;html=1;verticalAlign=bottom;endArrow=open;endSize=8;strokeColor=#ff0000;rounded=0;" parent="1" source="3htCd6F4rnlMjq0S3QB5-14" edge="1">
          <mxGeometry relative="1" as="geometry">
            <mxPoint x="300" y="520" as="targetPoint" />
          </mxGeometry>
        </mxCell>
        <mxCell id="3htCd6F4rnlMjq0S3QB5-16" value="Unos podataka za dostavu" style="rounded=1;whiteSpace=wrap;html=1;arcSize=40;fontColor=#000000;fillColor=#ffffc0;strokeColor=#ff0000;" parent="1" vertex="1">
          <mxGeometry x="240" y="520" width="120" height="40" as="geometry" />
        </mxCell>
        <mxCell id="3htCd6F4rnlMjq0S3QB5-17" value="" style="edgeStyle=orthogonalEdgeStyle;html=1;verticalAlign=bottom;endArrow=open;endSize=8;strokeColor=#ff0000;rounded=0;" parent="1" source="3htCd6F4rnlMjq0S3QB5-16" edge="1">
          <mxGeometry relative="1" as="geometry">
            <mxPoint x="300" y="620" as="targetPoint" />
          </mxGeometry>
        </mxCell>
        <mxCell id="3htCd6F4rnlMjq0S3QB5-18" value="Svi podaci su ispravni?" style="rhombus;whiteSpace=wrap;html=1;fontColor=#000000;fillColor=#ffffc0;strokeColor=#ff0000;" parent="1" vertex="1">
          <mxGeometry x="240" y="620" width="120" height="80" as="geometry" />
        </mxCell>
        <mxCell id="3htCd6F4rnlMjq0S3QB5-19" value="NE" style="edgeStyle=orthogonalEdgeStyle;html=1;align=left;verticalAlign=bottom;endArrow=open;endSize=8;strokeColor=#ff0000;rounded=0;" parent="1" source="3htCd6F4rnlMjq0S3QB5-18" edge="1">
          <mxGeometry x="-0.5031" relative="1" as="geometry">
            <mxPoint x="440" y="660" as="targetPoint" />
            <mxPoint as="offset" />
          </mxGeometry>
        </mxCell>
        <mxCell id="3htCd6F4rnlMjq0S3QB5-20" value="DA" style="edgeStyle=orthogonalEdgeStyle;html=1;align=left;verticalAlign=top;endArrow=open;endSize=8;strokeColor=#ff0000;rounded=0;" parent="1" source="3htCd6F4rnlMjq0S3QB5-18" edge="1">
          <mxGeometry x="-1" relative="1" as="geometry">
            <mxPoint x="300" y="740" as="targetPoint" />
          </mxGeometry>
        </mxCell>
        <mxCell id="3htCd6F4rnlMjq0S3QB5-21" value="Korigovanje podataka" style="rounded=1;whiteSpace=wrap;html=1;arcSize=40;fontColor=#000000;fillColor=#ffffc0;strokeColor=#ff0000;" parent="1" vertex="1">
          <mxGeometry x="440" y="640" width="120" height="40" as="geometry" />
        </mxCell>
        <mxCell id="3htCd6F4rnlMjq0S3QB5-22" value="" style="edgeStyle=orthogonalEdgeStyle;html=1;verticalAlign=bottom;endArrow=open;endSize=8;strokeColor=#ff0000;rounded=0;entryX=1;entryY=0.5;entryDx=0;entryDy=0;" parent="1" source="3htCd6F4rnlMjq0S3QB5-21" target="3htCd6F4rnlMjq0S3QB5-16" edge="1">
          <mxGeometry relative="1" as="geometry">
            <mxPoint x="500" y="740" as="targetPoint" />
            <Array as="points">
              <mxPoint x="500" y="540" />
            </Array>
          </mxGeometry>
        </mxCell>
        <mxCell id="3htCd6F4rnlMjq0S3QB5-23" value="" style="edgeStyle=orthogonalEdgeStyle;html=1;verticalAlign=bottom;endArrow=open;endSize=8;strokeColor=#ff0000;rounded=0;entryX=1;entryY=0.5;entryDx=0;entryDy=0;exitX=0.5;exitY=0;exitDx=0;exitDy=0;" parent="1" source="3htCd6F4rnlMjq0S3QB5-8" target="3htCd6F4rnlMjq0S3QB5-3" edge="1">
          <mxGeometry relative="1" as="geometry">
            <mxPoint x="360" y="130" as="targetPoint" />
            <mxPoint x="500" y="210" as="sourcePoint" />
            <Array as="points">
              <mxPoint x="500" y="140" />
            </Array>
          </mxGeometry>
        </mxCell>
        <mxCell id="3htCd6F4rnlMjq0S3QB5-24" value="Kreiranje porudžbine" style="rounded=1;whiteSpace=wrap;html=1;arcSize=40;fontColor=#000000;fillColor=#ffffc0;strokeColor=#ff0000;" parent="1" vertex="1">
          <mxGeometry x="240" y="740" width="120" height="40" as="geometry" />
        </mxCell>
        <mxCell id="3htCd6F4rnlMjq0S3QB5-25" value="" style="edgeStyle=orthogonalEdgeStyle;html=1;verticalAlign=bottom;endArrow=open;endSize=8;strokeColor=#ff0000;rounded=0;" parent="1" source="3htCd6F4rnlMjq0S3QB5-24" edge="1">
          <mxGeometry relative="1" as="geometry">
            <mxPoint x="300" y="840" as="targetPoint" />
          </mxGeometry>
        </mxCell>
        <mxCell id="3htCd6F4rnlMjq0S3QB5-26" value="Korisnik želi&amp;nbsp;&lt;div&gt;izmenu?&lt;/div&gt;" style="rhombus;whiteSpace=wrap;html=1;fontColor=#000000;fillColor=#ffffc0;strokeColor=#ff0000;" parent="1" vertex="1">
          <mxGeometry x="240" y="840" width="120" height="90" as="geometry" />
        </mxCell>
        <mxCell id="3htCd6F4rnlMjq0S3QB5-27" value="DA" style="edgeStyle=orthogonalEdgeStyle;html=1;align=left;verticalAlign=bottom;endArrow=open;endSize=8;strokeColor=#ff0000;rounded=0;entryX=0.5;entryY=0;entryDx=0;entryDy=0;" parent="1" source="3htCd6F4rnlMjq0S3QB5-26" target="3htCd6F4rnlMjq0S3QB5-29" edge="1">
          <mxGeometry x="-0.2727" y="5" relative="1" as="geometry">
            <mxPoint x="520" y="930" as="targetPoint" />
            <Array as="points">
              <mxPoint x="480" y="885" />
            </Array>
            <mxPoint as="offset" />
          </mxGeometry>
        </mxCell>
        <mxCell id="3htCd6F4rnlMjq0S3QB5-28" value="NE" style="edgeStyle=orthogonalEdgeStyle;html=1;align=left;verticalAlign=top;endArrow=open;endSize=8;strokeColor=#ff0000;rounded=0;" parent="1" source="3htCd6F4rnlMjq0S3QB5-26" edge="1">
          <mxGeometry x="-0.975" y="-20" relative="1" as="geometry">
            <mxPoint x="300" y="1730" as="targetPoint" />
            <mxPoint as="offset" />
          </mxGeometry>
        </mxCell>
        <mxCell id="3htCd6F4rnlMjq0S3QB5-29" value="Proces obrade zahteva" style="swimlane;fontStyle=1;align=center;verticalAlign=middle;childLayout=stackLayout;horizontal=1;startSize=30;horizontalStack=0;resizeParent=0;resizeLast=1;container=0;fontColor=#000000;collapsible=0;rounded=1;arcSize=30;strokeColor=#ff0000;fillColor=#ffffc0;swimlaneFillColor=#ffffc0;dropTarget=0;" parent="1" vertex="1">
          <mxGeometry x="330" y="930" width="300" height="670" as="geometry" />
        </mxCell>
        <mxCell id="3htCd6F4rnlMjq0S3QB5-31" value="" style="edgeStyle=orthogonalEdgeStyle;html=1;verticalAlign=bottom;endArrow=open;endSize=8;strokeColor=#ff0000;rounded=0;" parent="1" source="3htCd6F4rnlMjq0S3QB5-29" edge="1">
          <mxGeometry relative="1" as="geometry">
            <mxPoint x="320" y="1750" as="targetPoint" />
            <Array as="points">
              <mxPoint x="480" y="1750" />
              <mxPoint x="330" y="1750" />
            </Array>
          </mxGeometry>
        </mxCell>
        <mxCell id="3htCd6F4rnlMjq0S3QB5-32" value="Administrator prihvata zahtev" style="rounded=1;whiteSpace=wrap;html=1;arcSize=40;fontColor=#000000;fillColor=#ffffc0;strokeColor=#ff0000;" parent="1" vertex="1">
          <mxGeometry x="420" y="970" width="120" height="40" as="geometry" />
        </mxCell>
        <mxCell id="3htCd6F4rnlMjq0S3QB5-33" value="" style="edgeStyle=orthogonalEdgeStyle;html=1;verticalAlign=bottom;endArrow=open;endSize=8;strokeColor=#ff0000;rounded=0;" parent="1" source="3htCd6F4rnlMjq0S3QB5-32" edge="1">
          <mxGeometry relative="1" as="geometry">
            <mxPoint x="480" y="1070" as="targetPoint" />
          </mxGeometry>
        </mxCell>
        <mxCell id="3htCd6F4rnlMjq0S3QB5-34" value="Provera detalja porudžbine" style="rounded=1;whiteSpace=wrap;html=1;arcSize=40;fontColor=#000000;fillColor=#ffffc0;strokeColor=#ff0000;" parent="1" vertex="1">
          <mxGeometry x="420" y="1070" width="120" height="40" as="geometry" />
        </mxCell>
        <mxCell id="3htCd6F4rnlMjq0S3QB5-35" value="" style="edgeStyle=orthogonalEdgeStyle;html=1;verticalAlign=bottom;endArrow=open;endSize=8;strokeColor=#ff0000;rounded=0;" parent="1" source="3htCd6F4rnlMjq0S3QB5-34" edge="1">
          <mxGeometry relative="1" as="geometry">
            <mxPoint x="480" y="1170" as="targetPoint" />
          </mxGeometry>
        </mxCell>
        <mxCell id="3htCd6F4rnlMjq0S3QB5-36" value="Izmena je moguća?" style="rhombus;whiteSpace=wrap;html=1;fontColor=#000000;fillColor=#ffffc0;strokeColor=#ff0000;" parent="1" vertex="1">
          <mxGeometry x="430" y="1170" width="100" height="50" as="geometry" />
        </mxCell>
        <mxCell id="3htCd6F4rnlMjq0S3QB5-37" value="no" style="edgeStyle=orthogonalEdgeStyle;html=1;align=left;verticalAlign=bottom;endArrow=open;endSize=8;strokeColor=#ff0000;rounded=0;" parent="1" source="3htCd6F4rnlMjq0S3QB5-36" edge="1">
          <mxGeometry x="-0.5789" y="5" relative="1" as="geometry">
            <mxPoint x="460" y="1450" as="targetPoint" />
            <Array as="points">
              <mxPoint x="590" y="1195" />
            </Array>
            <mxPoint as="offset" />
          </mxGeometry>
        </mxCell>
        <mxCell id="3htCd6F4rnlMjq0S3QB5-38" value="yes" style="edgeStyle=orthogonalEdgeStyle;html=1;align=left;verticalAlign=top;endArrow=open;endSize=8;strokeColor=#ff0000;rounded=0;" parent="1" source="3htCd6F4rnlMjq0S3QB5-36" edge="1">
          <mxGeometry x="-0.0533" y="-25" relative="1" as="geometry">
            <mxPoint x="380" y="1230" as="targetPoint" />
            <mxPoint as="offset" />
          </mxGeometry>
        </mxCell>
        <mxCell id="3htCd6F4rnlMjq0S3QB5-39" value="Izmena odgovarajućih podataka" style="rounded=1;whiteSpace=wrap;html=1;arcSize=40;fontColor=#000000;fillColor=#ffffc0;strokeColor=#ff0000;" parent="1" vertex="1">
          <mxGeometry x="340" y="1230" width="120" height="40" as="geometry" />
        </mxCell>
        <mxCell id="3htCd6F4rnlMjq0S3QB5-40" value="" style="edgeStyle=orthogonalEdgeStyle;html=1;verticalAlign=bottom;endArrow=open;endSize=8;strokeColor=#ff0000;rounded=0;" parent="1" source="3htCd6F4rnlMjq0S3QB5-39" edge="1">
          <mxGeometry relative="1" as="geometry">
            <mxPoint x="400" y="1330" as="targetPoint" />
          </mxGeometry>
        </mxCell>
        <mxCell id="3htCd6F4rnlMjq0S3QB5-41" value="Ažuriranje/čuvanje podataka" style="rounded=1;whiteSpace=wrap;html=1;arcSize=40;fontColor=#000000;fillColor=#ffffc0;strokeColor=#ff0000;" parent="1" vertex="1">
          <mxGeometry x="340" y="1330" width="120" height="40" as="geometry" />
        </mxCell>
        <mxCell id="3htCd6F4rnlMjq0S3QB5-42" value="" style="edgeStyle=orthogonalEdgeStyle;html=1;verticalAlign=bottom;endArrow=open;endSize=8;strokeColor=#ff0000;rounded=0;" parent="1" source="3htCd6F4rnlMjq0S3QB5-41" edge="1">
          <mxGeometry relative="1" as="geometry">
            <mxPoint x="400" y="1430" as="targetPoint" />
          </mxGeometry>
        </mxCell>
        <mxCell id="3htCd6F4rnlMjq0S3QB5-43" value="Slanje povratne informacije korisniku" style="rounded=1;whiteSpace=wrap;html=1;arcSize=40;fontColor=#000000;fillColor=#ffffc0;strokeColor=#ff0000;" parent="1" vertex="1">
          <mxGeometry x="340" y="1430" width="120" height="40" as="geometry" />
        </mxCell>
        <mxCell id="3htCd6F4rnlMjq0S3QB5-44" value="" style="edgeStyle=orthogonalEdgeStyle;html=1;verticalAlign=bottom;endArrow=open;endSize=8;strokeColor=#ff0000;rounded=0;exitX=0.5;exitY=1;exitDx=0;exitDy=0;" parent="1" source="3htCd6F4rnlMjq0S3QB5-43" edge="1">
          <mxGeometry relative="1" as="geometry">
            <mxPoint x="480" y="1600" as="targetPoint" />
          </mxGeometry>
        </mxCell>
        <mxCell id="3htCd6F4rnlMjq0S3QB5-47" value="" style="ellipse;html=1;shape=endState;fillColor=#000000;strokeColor=#ff0000;" parent="1" vertex="1">
          <mxGeometry x="280" y="1730" width="40" height="40" as="geometry" />
        </mxCell>
      </root>
    </mxGraphModel>
  </diagram>
</mxfile>
